<mxfile host="app.diagrams.net" modified="2022-01-07T06:59:50.690Z" agent="5.0 (Macintosh; Intel Mac OS X 10_15_7) AppleWebKit/537.36 (KHTML, like Gecko) Chrome/86.0.4240.111 Safari/537.36" etag="VxrFtWKh0E9TCqvDKFqI" version="16.2.2" type="github">
  <diagram id="OlZEOA0zvrnhem5579Ee" name="Page-1">
    <mxGraphModel dx="946" dy="506" grid="1" gridSize="10" guides="1" tooltips="1" connect="1" arrows="1" fold="1" page="1" pageScale="1" pageWidth="827" pageHeight="1169" math="0" shadow="0">
      <root>
        <mxCell id="0" />
        <mxCell id="1" parent="0" />
        <mxCell id="CJ9ZkTnZIKFmRV_ew28D-1" value="&lt;font style=&quot;font-size: 16px&quot; color=&quot;#007fff&quot;&gt;local Kernel FS&lt;br&gt;EXT 4&lt;br&gt;&lt;/font&gt;" style="rounded=0;whiteSpace=wrap;html=1;sketch=0;fontColor=#1A1A1A;strokeColor=#D0CEE2;fillColor=#FAD9D5;comic=1;" parent="1" vertex="1">
          <mxGeometry x="450" y="720" width="130" height="90" as="geometry" />
        </mxCell>
        <mxCell id="CJ9ZkTnZIKFmRV_ew28D-3" value="local RAW FS" style="rounded=0;whiteSpace=wrap;html=1;comic=1;sketch=0;fontSize=16;fontColor=#007FFF;strokeColor=#D0CEE2;fillColor=#FFE599;gradientColor=none;" parent="1" vertex="1">
          <mxGeometry x="590" y="720" width="130" height="40" as="geometry" />
        </mxCell>
        <mxCell id="CJ9ZkTnZIKFmRV_ew28D-4" value="SPDK" style="rounded=0;whiteSpace=wrap;html=1;comic=1;sketch=0;fontSize=16;fontColor=#007FFF;strokeColor=#D0CEE2;fillColor=#FFE599;gradientColor=none;" parent="1" vertex="1">
          <mxGeometry x="590" y="770" width="60" height="40" as="geometry" />
        </mxCell>
        <mxCell id="CJ9ZkTnZIKFmRV_ew28D-5" value="AIO" style="rounded=0;whiteSpace=wrap;html=1;comic=1;sketch=0;fontSize=16;fontColor=#007FFF;strokeColor=#D0CEE2;fillColor=#FFE599;gradientColor=none;" parent="1" vertex="1">
          <mxGeometry x="660" y="770" width="60" height="40" as="geometry" />
        </mxCell>
        <mxCell id="CJ9ZkTnZIKFmRV_ew28D-8" value="chunk store" style="rounded=1;whiteSpace=wrap;html=1;comic=1;sketch=0;fontSize=16;fontColor=#007FFF;strokeColor=#D0CEE2;fillColor=#A9C4EB;gradientColor=none;" parent="1" vertex="1">
          <mxGeometry x="450" y="650" width="270" height="60" as="geometry" />
        </mxCell>
        <mxCell id="CJ9ZkTnZIKFmRV_ew28D-9" value="meta server" style="ellipse;shape=doubleEllipse;whiteSpace=wrap;html=1;rounded=0;comic=1;sketch=0;fontSize=16;fontColor=#007FFF;strokeColor=#D0CEE2;fillColor=#A9C4EB;gradientColor=none;" parent="1" vertex="1">
          <mxGeometry x="30" y="210" width="100" height="60" as="geometry" />
        </mxCell>
        <mxCell id="CJ9ZkTnZIKFmRV_ew28D-10" value="meta server" style="ellipse;shape=doubleEllipse;whiteSpace=wrap;html=1;rounded=0;comic=1;sketch=0;fontSize=16;fontColor=#007FFF;strokeColor=#D0CEE2;fillColor=#A9C4EB;gradientColor=none;" parent="1" vertex="1">
          <mxGeometry x="110" y="320" width="100" height="60" as="geometry" />
        </mxCell>
        <mxCell id="CJ9ZkTnZIKFmRV_ew28D-11" value="meta server" style="ellipse;shape=doubleEllipse;whiteSpace=wrap;html=1;rounded=0;comic=1;sketch=0;fontSize=16;fontColor=#007FFF;strokeColor=#D0CEE2;fillColor=#A9C4EB;gradientColor=none;" parent="1" vertex="1">
          <mxGeometry x="210" y="210" width="100" height="60" as="geometry" />
        </mxCell>
        <mxCell id="CJ9ZkTnZIKFmRV_ew28D-12" value="" style="edgeStyle=segmentEdgeStyle;endArrow=classic;html=1;rounded=1;sketch=0;fontSize=16;fontColor=#007FFF;strokeColor=#09555B;curved=0;entryX=0.5;entryY=1;entryDx=0;entryDy=0;" parent="1" target="CJ9ZkTnZIKFmRV_ew28D-11" edge="1">
          <mxGeometry width="50" height="50" relative="1" as="geometry">
            <mxPoint x="210" y="350" as="sourcePoint" />
            <mxPoint x="260" y="300" as="targetPoint" />
          </mxGeometry>
        </mxCell>
        <mxCell id="CJ9ZkTnZIKFmRV_ew28D-13" value="" style="edgeStyle=segmentEdgeStyle;endArrow=classic;html=1;rounded=1;sketch=0;fontSize=16;fontColor=#007FFF;strokeColor=#09555B;curved=0;exitX=0;exitY=0.5;exitDx=0;exitDy=0;entryX=1;entryY=0.5;entryDx=0;entryDy=0;" parent="1" source="CJ9ZkTnZIKFmRV_ew28D-11" target="CJ9ZkTnZIKFmRV_ew28D-9" edge="1">
          <mxGeometry width="50" height="50" relative="1" as="geometry">
            <mxPoint x="390" y="360" as="sourcePoint" />
            <mxPoint x="440" y="310" as="targetPoint" />
          </mxGeometry>
        </mxCell>
        <mxCell id="CJ9ZkTnZIKFmRV_ew28D-15" value="" style="edgeStyle=segmentEdgeStyle;endArrow=classic;html=1;rounded=1;sketch=0;fontSize=16;fontColor=#007FFF;strokeColor=#09555B;curved=0;entryX=0;entryY=0.5;entryDx=0;entryDy=0;exitX=0;exitY=0.5;exitDx=0;exitDy=0;" parent="1" source="CJ9ZkTnZIKFmRV_ew28D-9" target="CJ9ZkTnZIKFmRV_ew28D-10" edge="1">
          <mxGeometry width="50" height="50" relative="1" as="geometry">
            <mxPoint x="390" y="360" as="sourcePoint" />
            <mxPoint x="440" y="310" as="targetPoint" />
            <Array as="points">
              <mxPoint x="30" y="350" />
            </Array>
          </mxGeometry>
        </mxCell>
        <mxCell id="CJ9ZkTnZIKFmRV_ew28D-16" value="RAFT" style="text;strokeColor=none;fillColor=none;html=1;fontSize=24;fontStyle=1;verticalAlign=middle;align=center;rounded=0;comic=1;sketch=0;fontColor=#007FFF;" parent="1" vertex="1">
          <mxGeometry x="110" y="270" width="100" height="40" as="geometry" />
        </mxCell>
        <mxCell id="CJ9ZkTnZIKFmRV_ew28D-17" value="chunk server" style="ellipse;shape=doubleEllipse;whiteSpace=wrap;html=1;rounded=0;comic=1;sketch=0;fontSize=16;fontColor=#007FFF;strokeColor=#D0CEE2;fillColor=#A9C4EB;gradientColor=none;" parent="1" vertex="1">
          <mxGeometry x="20" y="450" width="100" height="60" as="geometry" />
        </mxCell>
        <mxCell id="CJ9ZkTnZIKFmRV_ew28D-18" value="&lt;span&gt;chunk server&lt;/span&gt;" style="ellipse;shape=doubleEllipse;whiteSpace=wrap;html=1;rounded=0;comic=1;sketch=0;fontSize=16;fontColor=#007FFF;strokeColor=#D0CEE2;fillColor=#A9C4EB;gradientColor=none;" parent="1" vertex="1">
          <mxGeometry x="140" y="450" width="100" height="60" as="geometry" />
        </mxCell>
        <mxCell id="CJ9ZkTnZIKFmRV_ew28D-19" value="&lt;span&gt;chunk server&lt;/span&gt;" style="ellipse;shape=doubleEllipse;whiteSpace=wrap;html=1;rounded=0;comic=1;sketch=0;fontSize=16;fontColor=#007FFF;strokeColor=#D0CEE2;fillColor=#A9C4EB;gradientColor=none;" parent="1" vertex="1">
          <mxGeometry x="260" y="450" width="100" height="60" as="geometry" />
        </mxCell>
        <mxCell id="CJ9ZkTnZIKFmRV_ew28D-20" value="&lt;span&gt;chunk server&lt;/span&gt;" style="ellipse;shape=doubleEllipse;whiteSpace=wrap;html=1;rounded=0;comic=1;sketch=0;fontSize=16;fontColor=#007FFF;strokeColor=#D0CEE2;fillColor=#A9C4EB;gradientColor=none;" parent="1" vertex="1">
          <mxGeometry x="20" y="520" width="100" height="60" as="geometry" />
        </mxCell>
        <mxCell id="CJ9ZkTnZIKFmRV_ew28D-21" value="&lt;span&gt;chunk server&lt;/span&gt;" style="ellipse;shape=doubleEllipse;whiteSpace=wrap;html=1;rounded=0;comic=1;sketch=0;fontSize=16;fontColor=#007FFF;strokeColor=#D0CEE2;fillColor=#A9C4EB;gradientColor=none;" parent="1" vertex="1">
          <mxGeometry x="140" y="520" width="100" height="60" as="geometry" />
        </mxCell>
        <mxCell id="CJ9ZkTnZIKFmRV_ew28D-22" value="&lt;span&gt;chunk server&lt;/span&gt;" style="ellipse;shape=doubleEllipse;whiteSpace=wrap;html=1;rounded=0;comic=1;sketch=0;fontSize=16;fontColor=#007FFF;strokeColor=#D0CEE2;fillColor=#A9C4EB;gradientColor=none;" parent="1" vertex="1">
          <mxGeometry x="260" y="520" width="100" height="60" as="geometry" />
        </mxCell>
      </root>
    </mxGraphModel>
  </diagram>
</mxfile>
